<?xml version="1.0" encoding="utf-8"?>
<!-- Generator: Adobe Illustrator 16.0.0, SVG Export Plug-In . SVG Version: 6.00 Build 0)  -->
<!DOCTYPE svg PUBLIC "-//W3C//DTD SVG 1.1//EN" "http://www.w3.org/Graphics/SVG/1.1/DTD/svg11.dtd">
<svg version="1.1" xmlns="http://www.w3.org/2000/svg" xmlns:xlink="http://www.w3.org/1999/xlink" x="0px" y="0px" width="200px"
	 height="200px" viewBox="0 0 200 200" enable-background="new 0 0 200 200" xml:space="preserve">
<g id="Layer_2">
	<rect x="0.109" fill="#009F34" width="200" height="200"/>
</g>
<g id="Layer_1">
	<path fill="#F5FFF0" d="M97.87,93.913c-6.696-18.871-16.131-35.915-30.132-50.524c-5.783-6.087-12.035-11.994-19.644-15.951
		c-1.688-0.844-2.736-1.578-4.562-2.188c-0.422-0.131-0.784-0.171-1.222-0.143c0.066,0.299,0.288,0.723,0.704,1.156
		c3.652,4.261,8.593,8.907,11.941,13.472c9.131,11.871,15.522,25.566,20.393,39.568c7.305,21.001,10.957,42.915,12.479,65.133
		c0.609,10.044,0.914,20.089,1.218,29.827c3.348,0.305,7.001,0.61,10.348,0.61c3.957,0,7.913-0.306,11.566-0.913
		c-0.305-12.785-0.912-25.871-3.043-38.654C106.088,121.307,102.74,107.609,97.87,93.913z"/>
	<path fill="#F5FFF0" d="M174.874,81.13c1.313-2.192,1.077-2.328,1.217-3.044c-0.799-0.016-1.299-0.357-3.042,0.609
		c-3.045,1.826-6.089,3.957-8.828,6.392c-15.523,13.696-26.174,30.741-32.871,50.524c-3.653,10.958-5.783,22.218-6.392,33.785
		c0,0.608,0,1.521,0,2.131c8.218-2.437,15.825-5.784,23.132-10.045c0.607-7.608,1.521-14.913,3.043-22.523
		c3.043-14.913,7.609-29.219,15.219-42.61C169.231,90.85,171.83,86.304,174.874,81.13z"/>
	<path fill="#F5FFF0" d="M75.651,140.176c-6.087-18.566-16.435-34.697-30.436-48.089c-4.87-4.565-10.044-8.827-15.827-12.174
		c-1.522-0.913-3.348-1.826-5.479-1.522c3.348,4.87,7.305,9.131,10.653,14.306c3.043,4.869,6.392,10.044,9.13,15.218
		c2.74,5.174,5.175,10.957,7,16.435c1.827,5.784,3.652,11.567,4.87,17.35s2.13,11.565,2.739,17.653
		c0.305,2.13,0.305,3.957,0.305,6.086c7.305,3.652,14.914,6.393,22.828,7.914C81.13,162.09,79.304,150.828,75.651,140.176z"/>
	<path fill="#F5FFF0" d="M154.458,50.084c0,0.499-0.562,0.916-1.194,1.522C140.176,62.868,131.957,77.173,126.176,93
		c-3.652,10.348-6.088,21-7.914,31.655c0,0.304,0,0.912-0.305,1.521c-0.913-4.262-1.521-8.219-2.436-12.176
		c-1.217-5.174-2.434-10.044-3.955-15.218c0-0.608-0.305-1.217,0-1.826c3.955-10.349,7.914-18.262,14.609-27.088
		c5.781-7.305,12.174-13.392,20.696-17.349c2.13-0.913,4.15-1.603,6.338-2.286C153.21,50.234,154.124,49.949,154.458,50.084z"/>
</g>
</svg>
